<svg width="120" height="20" viewBox="0 0 120 20" fill="none" xmlns="http://www.w3.org/2000/svg">
<path d="M10.616 2.32V4.552H3.536V9.472H9.056V11.704H3.536V19H0.8V2.32H10.616ZM25.2716 12.064C25.2716 12.56 25.2396 13.008 25.1756 13.408H15.0716C15.1516 14.464 15.5436 15.312 16.2476 15.952C16.9516 16.592 17.8156 16.912 18.8396 16.912C20.3116 16.912 21.3516 16.296 21.9596 15.064H24.9116C24.5116 16.28 23.7836 17.28 22.7276 18.064C21.6876 18.832 20.3916 19.216 18.8396 19.216C17.5756 19.216 16.4396 18.936 15.4316 18.376C14.4396 17.8 13.6556 17 13.0796 15.976C12.5196 14.936 12.2396 13.736 12.2396 12.376C12.2396 11.016 12.5116 9.824 13.0556 8.8C13.6156 7.76 14.3916 6.96 15.3836 6.4C16.3916 5.84 17.5436 5.56 18.8396 5.56C20.0876 5.56 21.1996 5.832 22.1756 6.376C23.1516 6.92 23.9116 7.688 24.4556 8.68C24.9996 9.656 25.2716 10.784 25.2716 12.064ZM22.4156 11.2C22.3996 10.192 22.0396 9.384 21.3356 8.776C20.6316 8.168 19.7596 7.864 18.7196 7.864C17.7756 7.864 16.9676 8.168 16.2956 8.776C15.6236 9.368 15.2236 10.176 15.0956 11.2H22.4156ZM30.7001 1.24V19H27.9641V1.24H30.7001ZM35.6842 4.024C35.1882 4.024 34.7722 3.856 34.4362 3.52C34.1002 3.184 33.9322 2.768 33.9322 2.272C33.9322 1.776 34.1002 1.36 34.4362 1.024C34.7722 0.687999 35.1882 0.519999 35.6842 0.519999C36.1642 0.519999 36.5722 0.687999 36.9082 1.024C37.2442 1.36 37.4122 1.776 37.4122 2.272C37.4122 2.768 37.2442 3.184 36.9082 3.52C36.5722 3.856 36.1642 4.024 35.6842 4.024ZM37.0282 5.776V19H34.2922V5.776H37.0282ZM43.0443 16.768H49.0443V19H39.8763V16.768L45.9003 8.008H39.8763V5.776H49.0443V8.008L43.0443 16.768ZM71.8556 19H69.1196L60.8876 6.544V19H58.1516V2.296H60.8876L69.1196 14.728V2.296H71.8556V19ZM74.5364 12.328C74.5364 11 74.8084 9.824 75.3524 8.8C75.9124 7.776 76.6644 6.984 77.6084 6.424C78.5684 5.848 79.6244 5.56 80.7764 5.56C81.8164 5.56 82.7204 5.768 83.4884 6.184C84.2724 6.584 84.8964 7.088 85.3604 7.696V5.776H88.1204V19H85.3604V17.032C84.8964 17.656 84.2644 18.176 83.4644 18.592C82.6644 19.008 81.7524 19.216 80.7284 19.216C79.5924 19.216 78.5524 18.928 77.6084 18.352C76.6644 17.76 75.9124 16.944 75.3524 15.904C74.8084 14.848 74.5364 13.656 74.5364 12.328ZM85.3604 12.376C85.3604 11.464 85.1684 10.672 84.7844 10C84.4164 9.328 83.9284 8.816 83.3204 8.464C82.7124 8.112 82.0564 7.936 81.3524 7.936C80.6484 7.936 79.9924 8.112 79.3844 8.464C78.7764 8.8 78.2804 9.304 77.8964 9.976C77.5284 10.632 77.3444 11.416 77.3444 12.328C77.3444 13.24 77.5284 14.04 77.8964 14.728C78.2804 15.416 78.7764 15.944 79.3844 16.312C80.0084 16.664 80.6644 16.84 81.3524 16.84C82.0564 16.84 82.7124 16.664 83.3204 16.312C83.9284 15.96 84.4164 15.448 84.7844 14.776C85.1684 14.088 85.3604 13.288 85.3604 12.376ZM94.9061 8.008V15.328C94.9061 15.824 95.0181 16.184 95.2421 16.408C95.4821 16.616 95.8821 16.72 96.4421 16.72H98.1221V19H95.9621C94.7301 19 93.7861 18.712 93.1301 18.136C92.4741 17.56 92.1461 16.624 92.1461 15.328V8.008H90.5861V5.776H92.1461V2.488H94.9061V5.776H98.1221V8.008H94.9061ZM99.7318 12.328C99.7318 11 100.004 9.824 100.548 8.8C101.108 7.776 101.86 6.984 102.804 6.424C103.764 5.848 104.82 5.56 105.972 5.56C107.012 5.56 107.916 5.768 108.684 6.184C109.468 6.584 110.092 7.088 110.556 7.696V5.776H113.316V19H110.556V17.032C110.092 17.656 109.46 18.176 108.66 18.592C107.86 19.008 106.948 19.216 105.924 19.216C104.788 19.216 103.748 18.928 102.804 18.352C101.86 17.76 101.108 16.944 100.548 15.904C100.004 14.848 99.7318 13.656 99.7318 12.328ZM110.556 12.376C110.556 11.464 110.364 10.672 109.98 10C109.612 9.328 109.124 8.816 108.516 8.464C107.908 8.112 107.252 7.936 106.548 7.936C105.844 7.936 105.188 8.112 104.58 8.464C103.972 8.8 103.476 9.304 103.092 9.976C102.724 10.632 102.54 11.416 102.54 12.328C102.54 13.24 102.724 14.04 103.092 14.728C103.476 15.416 103.972 15.944 104.58 16.312C105.204 16.664 105.86 16.84 106.548 16.84C107.252 16.84 107.908 16.664 108.516 16.312C109.124 15.96 109.612 15.448 109.98 14.776C110.364 14.088 110.556 13.288 110.556 12.376ZM119.645 1.24V19H116.909V1.24H119.645Z" fill="#161212"/>
</svg>
